<svg width="26" height="26" viewBox="0 0 26 26" fill="none" xmlns="http://www.w3.org/2000/svg">
<g clip-path="url(#clip0_2_1166)">
<path d="M13.3981 5.19595C7.66243 5.19595 2.99609 9.8623 2.99609 15.598C2.99609 21.3337 7.66243 26 13.3981 26C19.1337 26 23.8001 21.3336 23.8001 15.598C23.8001 9.86235 19.1338 5.19595 13.3981 5.19595ZM13.3981 24.4765C8.50246 24.4765 4.51953 20.4936 4.51953 15.598C4.51953 10.7024 8.50246 6.71944 13.3981 6.71944C18.2937 6.71944 22.2766 10.7024 22.2766 15.598C22.2766 20.4936 18.2937 24.4765 13.3981 24.4765Z" fill="white"/>
<path d="M17.9407 17.5324C17.6214 17.2585 17.1405 17.2953 16.8666 17.6146C15.9968 18.6286 14.7326 19.2102 13.398 19.2102C12.0635 19.2102 10.7993 18.6287 9.92948 17.6147C9.65556 17.2954 9.17471 17.2586 8.8554 17.5325C8.53609 17.8064 8.49927 18.2873 8.77319 18.6066C9.93273 19.9584 11.6185 20.7337 13.398 20.7337C15.1777 20.7337 16.8634 19.9584 18.0229 18.6065C18.2968 18.2872 18.26 17.8063 17.9407 17.5324Z" fill="white"/>
<path d="M9.16943 14.3999C9.59011 14.3999 9.93115 14.0589 9.93115 13.6382C9.93115 13.394 10.1299 13.1953 10.3741 13.1953C10.6183 13.1953 10.817 13.394 10.817 13.6382C10.817 14.0589 11.158 14.3999 11.5787 14.3999C11.9994 14.3999 12.3404 14.0589 12.3404 13.6382C12.3404 12.554 11.4583 11.6719 10.3741 11.6719C9.28984 11.6719 8.40771 12.554 8.40771 13.6382C8.40771 14.0589 8.74876 14.3999 9.16943 14.3999Z" fill="white"/>
<path d="M16.4222 11.6719C15.3379 11.6719 14.4558 12.554 14.4558 13.6382C14.4558 14.0589 14.7969 14.4 15.2175 14.4C15.6382 14.4 15.9792 14.0589 15.9792 13.6382C15.9792 13.394 16.178 13.1953 16.4222 13.1953C16.6664 13.1953 16.8651 13.394 16.8651 13.6382C16.8651 14.0589 17.2061 14.4 17.6268 14.4C18.0475 14.4 18.3885 14.0589 18.3885 13.6382C18.3885 12.5539 17.5064 11.6719 16.4222 11.6719Z" fill="white"/>
<path d="M19.6736 4.27887H20.7848C21.2055 4.27887 21.5465 3.93782 21.5465 3.51715C21.5465 3.09648 21.2055 2.75543 20.7848 2.75543H19.6736C19.2529 2.75543 18.9119 3.09648 18.9119 3.51715C18.9119 3.93782 19.2529 4.27887 19.6736 4.27887Z" fill="white"/>
<path d="M22.4561 7.03426C22.8767 7.03426 23.2178 6.69322 23.2178 6.27254V5.1613C23.2178 4.74063 22.8767 4.39958 22.4561 4.39958C22.0354 4.39958 21.6943 4.74063 21.6943 5.1613V6.27254C21.6943 6.69327 22.0354 7.03426 22.4561 7.03426Z" fill="white"/>
<path d="M25.2382 2.75543H24.127C23.7063 2.75543 23.3652 3.09648 23.3652 3.51715C23.3652 3.93782 23.7063 4.27887 24.127 4.27887H25.2382C25.6589 4.27887 25.9999 3.93782 25.9999 3.51715C25.9999 3.09648 25.6589 2.75543 25.2382 2.75543Z" fill="white"/>
<path d="M22.4561 2.63468C22.8767 2.63468 23.2178 2.29364 23.2178 1.87296V0.761719C23.2178 0.341047 22.8767 0 22.4561 0C22.0354 0 21.6943 0.341047 21.6943 0.761719V1.87296C21.6943 2.29364 22.0354 2.63468 22.4561 2.63468Z" fill="white"/>
<path d="M1.64887 3.77106H0.761719C0.341047 3.77106 0 4.1121 0 4.53278C0 4.95345 0.341047 5.29449 0.761719 5.29449H1.64887C2.06954 5.29449 2.41059 4.95345 2.41059 4.53278C2.41059 4.1121 2.06954 3.77106 1.64887 3.77106Z" fill="white"/>
<path d="M3.99853 6.98644V6.09929C3.99853 5.67862 3.65749 5.33757 3.23682 5.33757C2.81614 5.33757 2.4751 5.67862 2.4751 6.09929V6.98644C2.4751 7.40711 2.81614 7.74816 3.23682 7.74816C3.65749 7.74816 3.99853 7.40711 3.99853 6.98644Z" fill="white"/>
<path d="M4.82495 5.29449H5.7121C6.13277 5.29449 6.47382 4.95345 6.47382 4.53278C6.47382 4.1121 6.13277 3.77106 5.7121 3.77106H4.82495C4.40428 3.77106 4.06323 4.1121 4.06323 4.53278C4.06323 4.95345 4.40428 5.29449 4.82495 5.29449Z" fill="white"/>
<path d="M3.23682 3.72794C3.65749 3.72794 3.99853 3.38689 3.99853 2.96622V2.07907C3.99853 1.6584 3.65749 1.31735 3.23682 1.31735C2.81614 1.31735 2.4751 1.6584 2.4751 2.07907V2.96622C2.4751 3.38689 2.81614 3.72794 3.23682 3.72794Z" fill="white"/>
</g>
<defs>
<clipPath id="clip0_2_1166">
<rect width="26" height="26" fill="white"/>
</clipPath>
</defs>
</svg>
